<?xml version="1.0" encoding="utf-8"?>
<svg version="1.1" id="_Слой" xmlns="http://www.w3.org/2000/svg" x="0px"
	 y="0px" viewBox="0 0 369 369" style="enable-background:new 0 0 369 369;" xml:space="preserve">
<style type="text/css">
	.st0{fill:#FFFFFF;}
	.st1{fill:#185701;}
</style>
<g id="_Слой_1">
	<g>
		<g>
			<path class="st0" d="M100,0C45,0,0,45,0,100v169c0,55,45,100,100,100h169c55,0,100-45,100-100V100C369,45,324,0,269,0H100z
				 M279.7,285.6c-0.3,4.4-2.8,7.2-7.1,8c-16.3,2.8-32.6,5.8-49,8.1c-10,1.4-20.1,1.5-30.2,2.7c-12.3,1.5-24.4-0.8-36.5-2.1
				c-13.1-1.5-26.3-2.9-39.4-4.4c-6.6-0.8-13.1-1.6-19.6-2.7c-5.4-0.9-8.2-4.4-8.6-10.6c-0.2-3.7-0.2-3.7-0.2-3.7
				c0.1-4.1,0.1-7.5,0-7.5s0.1-5.8,0.6-13c0,0,0,0,0.8-6.4c0.9-6.6,4.7-11.1,10.9-13.6c10.4-4.2,20.9-8.2,31.1-12.6
				c4.8-2.1,9.3-4.8,13.6-7.8c10.6-7.3,12.2-21.1,3.3-30.5c-4.7-5-9.6-9.8-12.1-16.4c-1.8-4.7-4.4-8.3-8.6-11.3
				c-5.9-4.2-8.6-12.2-5.2-17.9c5.7-9.4,5.2-19.8,6.5-29.9c1.5-11.6,5-22.3,12.1-31.8c9.3-12.3,22-18.2,37-18.9
				c10.5-0.5,20.8,1,30.6,5.6c15,6.9,23.4,19.1,27.3,34.5c2,7.9,2.5,16.2,4.1,24.3c0.8,4.1,1.9,8.3,3.8,12c4,8,3.6,14.7-2.9,20.7
				c-4.6,4.2-7.9,8.9-10.7,14.5c-2.7,5.3-7.2,9.8-11.3,14.2c-8.2,9-7.4,23.6,2.3,30.9c3.7,2.8,8,5,12.4,6.8
				c8.1,3.2,16.4,5.8,24.6,8.8c15.2,5.5,21.6,14.6,21.3,30.8C280.7,272.7,280.1,279.2,279.7,285.6z"/>
		</g>
		<path class="st1" d="M88.7,273.4c0.6-6.5,0.9-12.9,1.8-19.4c0.9-6.6,4.7-11.1,10.8-13.6c10.4-4.2,20.9-8.2,31.2-12.6
			c4.8-2.1,9.3-4.8,13.6-7.8c10.6-7.3,12.2-21.1,3.3-30.5c-4.7-5-9.6-9.8-12.1-16.4c-1.7-4.7-4.4-8.4-8.6-11.3
			c-5.9-4.2-8.6-12.2-5.2-17.9c5.7-9.4,5.2-19.8,6.5-29.9c1.5-11.6,5-22.3,12.1-31.8c9.3-12.3,22-18.2,37-18.9
			c10.5-0.5,20.8,1.1,30.6,5.6c15,6.9,23.4,19.1,27.3,34.5c2,7.9,2.5,16.2,4.1,24.3c0.8,4.1,1.9,8.3,3.8,12c4,8,3.6,14.7-2.9,20.6
			c-4.6,4.2-7.9,8.9-10.7,14.5c-2.7,5.3-7.2,9.8-11.3,14.2c-8.2,9-7.4,23.6,2.3,30.9c3.7,2.8,8.1,5,12.4,6.8
			c8.1,3.2,16.4,5.8,24.6,8.8c15.2,5.5,21.6,14.6,21.3,30.8c-0.1,6.5-0.6,13-1.1,19.4c-0.3,4.4-2.8,7.2-7.1,8
			c-16.3,2.8-32.6,5.8-49,8.1c-10,1.4-20.1,1.5-30.2,2.7c-12.3,1.5-24.4-0.8-36.5-2.1c-13.1-1.5-26.3-2.9-39.4-4.4
			c-6.6-0.8-13.1-1.6-19.6-2.7c-5.4-0.9-8.2-4.4-8.6-10.6c-0.2-3.7-0.1-7.5-0.1-11.2C89,273.4,88.8,273.4,88.7,273.4L88.7,273.4z
			 M187.3,88.1c-12.7,0.1-22.3,3.9-29.9,12.1c-6.2,6.8-10,14.6-8.6,24.1c0.7,4.5,3.7,7.2,8.4,7.6c4.4,0.4,7.1-1.4,8.7-5.9
			c0.5-1.4,0.8-2.9,1.2-4.3c2.7-9.6,11.2-15.3,20.9-14.2c7.9,0.9,13.3,6.7,11.8,13.8c-0.7,3.3-3,6.5-5.4,9.1c-3.7,3.9-8.1,7-12,10.6
			c-5.9,5.6-7.9,12.5-5.5,20.4c1.3,4.2,4.8,6.5,9.1,6.3c4.6-0.2,7.8-2.8,8.2-8c0.6-6.2,3.4-10.7,8.1-14.5c3.5-2.8,6.4-6.2,9.7-9.3
			c10.5-10,7.6-27.5,1.3-35.8C206.5,90.8,196.5,88.6,187.3,88.1L187.3,88.1z M174.5,187.9c0,6.2,4.8,11.4,10.5,11.4
			c6-0.1,11.5-5.3,11.6-11c0.1-6.3-4.7-11.3-11-11.3C179,177,174.5,181.4,174.5,187.9z"/>
		<path class="st0" d="M187.3,88.1c9.2,0.5,19.2,2.7,26.2,12c6.2,8.3,9.2,25.9-1.3,35.8c-3.2,3.1-6.2,6.5-9.7,9.3
			c-4.7,3.8-7.6,8.3-8.1,14.5c-0.5,5.3-3.6,7.8-8.2,8c-4.3,0.2-7.8-2.1-9.1-6.3c-2.4-7.9-0.4-14.8,5.5-20.4c3.9-3.7,8.4-6.8,12-10.6
			c2.4-2.5,4.7-5.8,5.4-9.1c1.5-7.1-3.9-12.9-11.8-13.8c-9.8-1.1-18.2,4.7-20.9,14.2c-0.4,1.4-0.7,2.9-1.2,4.3
			c-1.6,4.5-4.3,6.3-8.7,5.9c-4.6-0.4-7.7-3.1-8.4-7.6c-1.4-9.6,2.3-17.4,8.6-24.1C165,92,174.6,88.2,187.3,88.1L187.3,88.1z"/>
		<path class="st0" d="M174.4,187.9c0-6.5,4.5-11,11.1-10.9c6.3,0,11.1,5,11,11.3c-0.1,5.8-5.6,11-11.6,11
			C179.3,199.3,174.4,194.1,174.4,187.9z"/>
	</g>
</g>
</svg>
